<svg width="231" height="191" viewBox="0 0 231 191" fill="none" xmlns="http://www.w3.org/2000/svg">
<path d="M128 91.5359C130.667 93.0755 130.667 96.9245 128 98.4641L54.5 140.899C51.8333 142.439 48.5 140.514 48.5 137.435L48.5 52.5648C48.5 49.4856 51.8333 47.561 54.5 49.1006L128 91.5359Z" fill="#EC3B3B"/>
<path d="M167.652 91.5359C170.319 93.0755 170.319 96.9245 167.652 98.4641L94.1522 140.899C91.4855 142.439 88.1522 140.514 88.1522 137.435L88.1522 52.5648C88.1522 49.4856 91.4855 47.561 94.1522 49.1006L167.652 91.5359Z" fill="#EC3B3B" fill-opacity="0.75"/>
<path d="M204.826 91.5359C207.493 93.0755 207.493 96.9245 204.826 98.4641L131.326 140.899C128.659 142.439 125.326 140.514 125.326 137.435L125.326 52.5648C125.326 49.4856 128.659 47.561 131.326 49.1006L204.826 91.5359Z" fill="#EC3B3B" fill-opacity="0.5"/>
</svg>
